<svg width="1331" height="157" viewBox="0 0 1331 157" fill="none" xmlns="http://www.w3.org/2000/svg">
<path d="M1108.94 36.3005L1085.66 25.708C1084.34 25.1089 1082.86 24.9112 1081.42 25.1423C1079.98 25.3734 1078.66 26.0218 1077.62 26.9977L1001.42 92.6594C1000.49 93.4523 999.938 94.5599 999.878 95.7385C999.817 96.9171 1000.25 98.0701 1001.09 98.944C1001.19 99.047 1001.3 99.1462 1001.4 99.2378L1007.63 104.58C1008.44 105.279 1009.49 105.687 1010.58 105.733C1011.68 105.779 1012.76 105.46 1013.64 104.832L1105.43 39.0479C1106.12 38.5507 1106.95 38.2462 1107.82 38.1688C1108.68 38.0914 1109.56 38.2441 1110.34 38.6097C1111.12 38.9754 1111.77 39.5394 1112.23 40.2384C1112.69 40.9373 1112.93 41.7435 1112.93 42.566V42.3104C1112.93 41.0546 1112.56 39.8244 1111.85 38.7612C1111.14 37.698 1110.13 36.8451 1108.94 36.3005V36.3005Z" fill="#044EE3"/>
<path d="M1108.94 120.018L1085.66 130.615C1084.34 131.212 1082.86 131.409 1081.42 131.178C1079.98 130.947 1078.66 130.3 1077.62 129.325L1001.42 63.6596C1000.49 62.8667 999.938 61.7591 999.878 60.5806C999.817 59.402 1000.25 58.2489 1001.09 57.3751C1001.19 57.272 1001.3 57.1728 1001.4 57.0812L1007.63 51.7392C1008.44 51.0369 1009.49 50.627 1010.59 50.581C1011.69 50.535 1012.77 50.8557 1013.65 51.4873L1105.43 117.271C1106.12 117.768 1106.95 118.073 1107.82 118.15C1108.68 118.228 1109.56 118.075 1110.34 117.709C1111.12 117.344 1111.77 116.78 1112.23 116.081C1112.69 115.382 1112.93 114.576 1112.93 113.753V114.028C1112.93 115.28 1112.55 116.506 1111.84 117.566C1111.14 118.625 1110.13 119.475 1108.94 120.018V120.018Z" fill="#044EE3"/>
<path d="M1085.66 130.615C1084.34 131.213 1082.86 131.409 1081.42 131.178C1079.98 130.947 1078.66 130.3 1077.62 129.326C1078.2 129.866 1078.94 130.233 1079.74 130.381C1080.54 130.528 1081.37 130.449 1082.12 130.154C1082.87 129.858 1083.52 129.36 1083.97 128.72C1084.42 128.081 1084.67 127.329 1084.67 126.559V29.7608C1084.67 28.9873 1084.43 28.231 1083.97 27.5878C1083.52 26.9445 1082.87 26.4432 1082.12 26.1473C1081.36 25.8515 1080.53 25.7744 1079.73 25.9259C1078.92 26.0774 1078.19 26.4506 1077.61 26.9982C1078.64 26.0227 1079.97 25.3742 1081.41 25.1425C1082.84 24.9107 1084.32 25.1072 1085.64 25.7047L1108.92 36.282C1110.12 36.8238 1111.13 37.6756 1111.84 38.7389C1112.55 39.8023 1112.93 41.034 1112.93 42.2918V114.028C1112.93 115.285 1112.56 116.516 1111.85 117.58C1111.14 118.644 1110.13 119.498 1108.93 120.042L1085.66 130.615Z" fill="#044EE3"/>
<g clip-path="url(#clip0_66_32)">
<path d="M242.258 5.98779H257.755V12.4677H248.738V18.9476H257.755V25.4275H242.258V5.98779ZM260.851 5.98779H276.353V11.6261H267.337V12.7502H276.353V25.71H260.851V19.7951H269.867V18.6651H260.851V5.98779ZM279.455 5.98779H294.945V11.6261H285.929V12.7502H294.945V25.71H279.455V19.7951H288.471V18.6651H279.455V5.98779Z" fill="#044EE3"/>
<path fill-rule="evenodd" clip-rule="evenodd" d="M269.242 150.253L227.501 138.663L215.197 34.3418H323.395L311.097 138.651L269.242 150.253ZM239.523 81.5645L240.671 94.356H285.015L283.53 110.946L269.26 114.806H269.248L255.002 110.958L254.088 100.758H241.243L243.034 120.847L269.242 128.12L295.492 120.847L298.69 84.9968L299.003 81.5645L301.311 55.6629H237.221L238.387 68.4604H287.293L286.127 81.5645H239.523V81.5645Z" fill="#044EE3"/>
</g>
<g clip-path="url(#clip1_66_32)">
<path d="M30.5388 5.9873H37.0427V12.4131H42.9936V5.9873H49.4976V25.439H42.9936V18.9291H37.0427V25.439H30.5448V5.9873H30.5388ZM58.0453 12.4371H52.3228V5.9873H70.2777V12.4371H64.5492V25.439H58.0453V12.4371V12.4371ZM73.1269 5.9873H79.9074L84.079 12.8219L88.2447 5.9873H95.0251V25.439H88.5513V15.7973L84.079 22.716H83.9648L79.4866 15.8033V25.439H73.1269V5.9873V5.9873ZM98.2591 5.9873H104.769V19.0132H113.906V25.445H98.2591V5.9873V5.9873Z" fill="#044EE3"/>
<path fill-rule="evenodd" clip-rule="evenodd" d="M30.3335 138.662L18.0349 34.3408H126.234L113.929 138.65L72.0741 150.252L30.3335 138.662ZM55.2011 81.5575L54.035 68.4534H102.995L104.137 55.662H40.0593L43.5097 94.355H87.8531L86.3683 110.945L72.0982 114.805H72.0861L57.84 110.957L56.9263 100.757H44.0747L45.866 120.846L72.0741 128.119L98.3243 120.846L101.522 84.9958L101.835 81.5635H55.2011V81.5575Z" fill="#044EE3"/>
</g>
<g clip-path="url(#clip2_66_32)">
<path d="M1248.05 108.652C1247.97 108.799 1247.9 108.917 1248.05 108.652V108.652ZM1309.16 87.31C1304.22 87.31 1299.36 88.4385 1294.93 90.6217C1293.48 87.7025 1291.99 85.1513 1291.74 83.2379C1291.45 81.0056 1291.13 79.6809 1291.47 77.0316C1291.82 74.3823 1293.36 70.629 1293.34 70.3592C1293.31 70.0894 1292.99 68.7402 1289.83 68.7156C1286.66 68.6911 1283.94 69.3289 1283.62 70.163C1283.06 71.6868 1282.63 73.2538 1282.32 74.8484C1281.76 77.7185 1276 87.9724 1272.74 93.3201C1271.66 91.235 1270.75 89.3952 1270.55 87.9233C1270.26 85.691 1269.94 84.3663 1270.28 81.717C1270.63 79.0677 1272.17 75.3144 1272.15 75.0446C1272.12 74.7748 1271.8 73.4256 1268.64 73.401C1265.48 73.3765 1262.76 74.0143 1262.44 74.8484C1262.12 75.6824 1261.78 77.6449 1261.14 79.5338C1260.5 81.4226 1252.82 98.4961 1250.82 102.936C1249.78 105.193 1248.9 107.008 1248.26 108.235C1248.17 108.431 1248.09 108.554 1248.04 108.652C1248.12 108.529 1248.17 108.407 1248.17 108.456C1247.63 109.51 1247.31 110.099 1247.31 110.099V110.124C1246.89 110.909 1246.42 111.62 1246.2 111.62C1246.06 111.62 1245.74 109.56 1246.28 106.738C1247.43 100.802 1250.15 91.5784 1250.13 91.2595C1250.1 91.0878 1250.64 89.4933 1248.34 88.6347C1246.11 87.8252 1245.3 89.1744 1245.1 89.1744C1244.9 89.1744 1244.76 89.665 1244.76 89.665C1244.76 89.665 1247.23 79.2639 1240 79.2639C1235.48 79.2639 1229.2 84.2191 1226.12 88.7083C1224.18 89.7631 1219.98 92.0445 1215.57 94.4731L1210.49 97.2696C1210.37 97.1469 1210.27 97.0243 1210.15 96.9016C1201.37 87.5308 1185.16 80.9075 1185.84 68.3231C1186.09 63.7359 1187.68 51.6912 1217.02 37.0708C1241.06 25.0997 1260.27 28.3869 1263.59 35.6971C1268.34 46.1227 1253.31 65.5266 1228.34 68.3231C1218.83 69.378 1213.83 65.6983 1212.58 64.3246C1211.28 62.8773 1211.08 62.8037 1210.59 63.0735C1209.78 63.5151 1210.3 64.7907 1210.59 65.5512C1211.33 67.4891 1214.39 70.9234 1219.62 72.6406C1224.2 74.137 1235.36 74.971 1248.85 69.7459C1264 63.9076 1275.8 47.6436 1272.34 34.029C1268.82 20.1936 1245.87 15.6554 1224.18 23.358C1211.26 27.9453 1197.28 35.1574 1187.23 44.5527C1175.28 55.7388 1173.37 65.4776 1174.16 69.5497C1176.95 83.9984 1196.87 93.4182 1204.83 100.385L1203.73 100.998C1199.73 102.985 1184.55 110.933 1180.75 119.323C1176.46 128.841 1181.46 135.66 1184.74 136.593C1195 139.438 1205.49 134.311 1211.13 125.897C1216.78 117.483 1216.09 106.493 1213.49 101.489C1213.46 101.415 1213.42 101.366 1213.39 101.293C1216.33 99.5491 1219.3 97.8481 1222.3 96.1902C1221.31 98.8396 1220.6 102.029 1220.23 106.64C1219.79 112.037 1222.03 119.028 1224.92 121.776C1226.2 122.978 1227.74 123.002 1228.7 123.002C1232.08 123.002 1233.6 120.206 1235.3 116.87C1237.38 112.798 1239.22 108.063 1239.22 108.063C1239.22 108.063 1236.92 120.868 1243.22 120.868C1245.53 120.868 1247.83 117.9 1248.86 116.379V116.404C1248.86 116.404 1248.91 116.306 1249.03 116.109C1249.28 115.741 1249.4 115.521 1249.4 115.521V115.447C1250.33 113.852 1252.37 110.197 1255.44 104.163C1259.41 96.3619 1263.21 86.6232 1263.21 86.6232C1263.58 88.7623 1264.09 90.8768 1264.73 92.9521C1265.42 95.2826 1266.86 97.8338 1268.02 100.311C1267.08 101.587 1266.52 102.323 1266.52 102.323C1266.52 102.343 1266.53 102.357 1266.54 102.372C1265.81 103.353 1264.97 104.408 1264.12 105.438C1260.98 109.167 1257.25 113.435 1256.76 114.662C1256.17 116.109 1256.31 117.189 1257.44 118.023C1258.28 118.66 1259.75 118.759 1261.29 118.636C1264.12 118.44 1266.1 117.753 1267.06 117.311C1268.82 116.679 1270.49 115.804 1272.01 114.711C1275.08 112.454 1276.95 109.216 1276.77 104.948C1276.68 102.593 1275.92 100.238 1274.98 98.03C1275.25 97.6375 1275.55 97.2205 1275.82 96.8035C1279.01 92.0403 1281.89 87.0727 1284.43 81.9329C1284.8 84.072 1285.3 86.1865 1285.95 88.2618C1286.54 90.2488 1287.69 92.4321 1288.74 94.5663C1284.18 98.2704 1281.36 102.563 1280.38 105.384C1278.57 110.609 1279.99 112.964 1282.67 113.504C1283.87 113.749 1285.59 113.185 1286.86 112.646C1288.75 112.013 1290.54 111.095 1292.15 109.923C1295.22 107.666 1298.19 104.501 1297.99 100.208C1297.91 98.2704 1297.37 96.3325 1296.66 94.4681C1300.51 92.8491 1305.52 91.966 1311.9 92.7019C1325.56 94.2964 1328.23 102.833 1327.71 106.39C1327.2 109.947 1324.33 111.934 1323.37 112.523C1322.42 113.112 1322.12 113.332 1322.2 113.774C1322.32 114.412 1322.76 114.387 1323.57 114.24C1324.7 114.044 1330.73 111.345 1331 104.747C1331.39 96.4061 1323.37 87.2315 1309.17 87.3051L1309.16 87.31ZM1203.88 122.806C1199.36 127.737 1193.04 129.601 1190.32 128.031C1187.4 126.334 1188.55 119.078 1194.11 113.823C1197.5 110.634 1201.87 107.69 1204.76 105.875C1205.42 105.483 1206.38 104.894 1207.56 104.182C1207.65 104.121 1207.75 104.064 1207.85 104.011C1208.07 103.863 1208.32 103.741 1208.56 103.594C1210.59 111.051 1208.64 117.625 1203.88 122.801V122.806ZM1236.84 100.385C1235.27 104.236 1231.96 114.049 1229.94 113.534C1228.23 113.092 1227.17 105.61 1229.6 98.2508C1230.83 94.5466 1233.43 90.1311 1234.97 88.4139C1237.45 85.6419 1240.17 84.7588 1240.81 85.8627C1241.67 87.31 1237.82 97.981 1236.84 100.385ZM1264.07 113.386C1263.4 113.73 1262.79 113.951 1262.5 113.779C1262.28 113.656 1262.77 113.19 1262.77 113.19C1262.77 113.19 1266.18 109.535 1267.53 107.867C1268.31 106.886 1269.22 105.733 1270.2 104.457C1270.2 104.58 1270.22 104.702 1270.22 104.85C1270.19 109.241 1265.98 112.209 1264.06 113.386H1264.07ZM1285.07 108.603C1284.57 108.259 1284.65 107.106 1286.29 103.525C1286.93 102.127 1288.4 99.7717 1290.95 97.5149C1291.24 98.3686 1291.4 99.2615 1291.42 100.164C1291.39 105.684 1287.44 107.744 1285.07 108.603V108.603Z" fill="#044EE3"/>
</g>
<g clip-path="url(#clip3_66_32)">
<path d="M847.714 133.593C847.123 133.593 846.532 133.424 845.998 133.143L840.595 129.935C839.779 129.485 840.173 129.316 840.455 129.232C841.524 128.866 841.749 128.781 842.902 128.106C843.015 128.05 843.184 128.078 843.296 128.134L847.461 130.61C847.601 130.695 847.826 130.695 847.967 130.61L864.23 121.213C864.371 121.128 864.483 120.959 864.483 120.763V101.995C864.483 101.798 864.399 101.63 864.23 101.545L847.967 92.1757C847.826 92.0913 847.629 92.0913 847.461 92.1757L831.198 101.545C831.029 101.63 830.944 101.827 830.944 101.995V120.763C830.944 120.931 831.057 121.1 831.198 121.185L835.643 123.745C838.063 124.955 839.554 123.52 839.554 122.113V103.571C839.554 103.318 839.751 103.093 840.033 103.093H842.087C842.34 103.093 842.565 103.29 842.565 103.571V122.113C842.565 125.349 840.82 127.178 837.753 127.178C836.825 127.178 836.065 127.178 834.011 126.165L829.735 123.717C828.693 123.098 828.018 121.972 828.018 120.763V101.995C828.018 100.786 828.665 99.6319 829.735 99.041L845.998 89.6434C847.039 89.0525 848.389 89.0525 849.402 89.6434L865.665 99.041C866.706 99.66 867.381 100.786 867.381 101.995V120.763C867.381 121.972 866.734 123.126 865.665 123.717L849.402 133.114C848.924 133.424 848.333 133.593 847.714 133.593V133.593ZM860.854 115.079C860.854 111.562 858.49 110.633 853.482 109.958C848.417 109.283 847.911 108.945 847.911 107.763C847.911 106.779 848.333 105.484 852.075 105.484C855.423 105.484 856.661 106.216 857.168 108.467C857.224 108.692 857.393 108.833 857.618 108.833H859.728C859.869 108.833 859.981 108.776 860.066 108.692C860.15 108.579 860.207 108.467 860.178 108.326C859.841 104.443 857.28 102.643 852.075 102.643C847.432 102.643 844.675 104.612 844.675 107.876C844.675 111.449 847.432 112.406 851.878 112.856C857.196 113.391 857.618 114.15 857.618 115.191C857.618 117.02 856.155 117.78 852.722 117.78C848.417 117.78 847.461 116.711 847.151 114.572C847.123 114.347 846.926 114.179 846.673 114.179H844.563C844.309 114.179 844.084 114.376 844.084 114.657C844.084 117.386 845.575 120.65 852.694 120.65C857.899 120.65 860.854 118.624 860.854 115.079V115.079ZM876.188 100.982C876.188 102.699 874.781 104.106 873.065 104.106C871.349 104.106 869.942 102.699 869.942 100.982C869.942 99.2098 871.405 97.8593 873.065 97.8593C874.753 97.8312 876.188 99.2098 876.188 100.982ZM875.682 100.982C875.682 99.5194 874.5 98.3657 873.037 98.3657C871.602 98.3657 870.42 99.5194 870.42 100.982C870.42 102.446 871.602 103.627 873.037 103.627C874.5 103.599 875.682 102.417 875.682 100.982ZM874.416 102.727H873.684C873.656 102.558 873.543 101.658 873.543 101.63C873.487 101.433 873.431 101.32 873.177 101.32H872.558V102.727H871.883V99.2098H873.093C873.515 99.2098 874.331 99.2098 874.331 100.138C874.331 100.786 873.909 100.926 873.656 101.011C874.134 101.039 874.162 101.348 874.247 101.798C874.275 102.08 874.331 102.558 874.416 102.727V102.727ZM873.628 100.251C873.628 99.7726 873.29 99.7726 873.121 99.7726H872.558V100.757H873.093C873.543 100.757 873.628 100.448 873.628 100.251V100.251ZM797.349 60.1562C797.349 59.3965 796.955 58.7212 796.308 58.3554L779.06 48.4232C778.779 48.2544 778.441 48.17 778.104 48.1418H777.935C777.597 48.1418 777.288 48.2544 776.978 48.4232L759.759 58.3554C759.112 58.7212 758.718 59.4246 758.718 60.1562L758.746 86.886C758.746 87.2518 758.943 87.5894 759.252 87.7864C759.562 87.9833 759.956 87.9833 760.293 87.7864L770.535 81.9058C771.182 81.5119 771.576 80.8366 771.576 80.1051V67.6124C771.576 66.8808 771.97 66.1774 772.617 65.8117L776.978 63.3075C777.316 63.1105 777.654 63.0261 778.019 63.0261C778.385 63.0261 778.751 63.1105 779.06 63.3075L783.422 65.8117C784.069 66.1774 784.463 66.8808 784.463 67.6124V80.1051C784.463 80.8366 784.857 81.54 785.504 81.9058L795.745 87.7864C796.055 87.9833 796.477 87.9833 796.787 87.7864C797.096 87.6176 797.293 87.2518 797.293 86.886L797.349 60.1562ZM891.663 30.9785V80.6115C891.663 81.3431 891.269 82.0465 890.622 82.4123L873.374 92.3726C872.727 92.7384 871.939 92.7384 871.292 92.3726L854.045 82.4123C853.397 82.0465 853.004 81.3431 853.004 80.6115V60.6908C853.004 59.9592 853.397 59.2558 854.045 58.89L871.292 48.9297C871.939 48.5639 872.727 48.5639 873.374 48.9297L877.679 51.4057C878.158 51.6871 878.777 51.3213 878.777 50.7867V24.3382C878.777 23.5504 879.621 23.044 880.324 23.4379L890.594 29.1777C891.241 29.5154 891.663 30.2188 891.663 30.9785V30.9785ZM878.72 67.2466C878.72 67.0497 878.608 66.8808 878.467 66.7964L872.558 63.3638C872.39 63.2794 872.193 63.2794 872.024 63.3638L866.115 66.7964C865.946 66.8808 865.862 67.0497 865.862 67.2466V74.0838C865.862 74.2808 865.975 74.4496 866.115 74.534L872.024 77.9385C872.193 78.023 872.39 78.023 872.53 77.9385L878.439 74.534C878.608 74.4496 878.692 74.2808 878.692 74.0838V67.2466H878.72ZM937.751 67.0497C938.398 66.6839 938.792 65.9805 938.792 65.2489V60.4376C938.792 59.706 938.398 59.0026 937.751 58.6368L920.616 48.6764C919.969 48.3107 919.181 48.3107 918.534 48.6764L901.286 58.6368C900.639 59.0026 900.245 59.706 900.245 60.4376V80.3583C900.245 81.118 900.639 81.7933 901.286 82.159L918.421 91.9225C919.04 92.2882 919.828 92.2882 920.475 91.9225L930.829 86.1544C931.533 85.7605 931.533 84.7476 930.829 84.3537L913.469 74.3933C913.132 74.1964 912.935 73.8587 912.935 73.493V67.2466C912.935 66.8808 913.132 66.5432 913.469 66.3462L918.871 63.2231C919.181 63.0261 919.603 63.0261 919.912 63.2231L925.315 66.3462C925.624 66.5432 925.849 66.8808 925.849 67.2466V72.1424C925.849 72.9302 926.722 73.4367 927.425 73.0428L937.751 67.0497V67.0497ZM916.001 68.0344C915.889 68.1189 915.805 68.2314 915.805 68.3721V72.1987C915.805 72.3394 915.889 72.48 916.001 72.5363L919.322 74.4496C919.434 74.534 919.603 74.534 919.716 74.4496L923.036 72.5363C923.148 72.4519 923.233 72.3394 923.233 72.1987V68.3721C923.233 68.2314 923.148 68.0907 923.036 68.0344L919.716 66.1212C919.603 66.0367 919.434 66.0367 919.322 66.1212L916.001 68.0344ZM844.478 80.2739V60.4657C844.478 59.7341 844.028 59.0307 843.381 58.6649L826.189 48.7608C825.598 48.4232 824.782 48.3669 824.107 48.7608L806.916 58.6649C806.269 59.0307 805.818 59.706 805.818 60.4657V80.2739C805.818 81.0617 806.353 81.737 806.944 82.0746L824.163 91.9787C824.839 92.3726 825.627 92.3445 826.246 91.9787L843.409 82.0746C843.915 81.7933 844.281 81.3149 844.422 80.7522C844.45 80.6115 844.478 80.4427 844.478 80.2739ZM823.573 45.1312L823.348 45.2719H823.657L823.573 45.1312V45.1312ZM845.013 81.7651L844.9 81.5682V81.8214L845.013 81.7651Z" fill="#044EE3"/>
</g>
<g clip-path="url(#clip4_66_32)">
<path d="M506.875 15.4189H407.834C400.377 15.4189 394.328 21.4683 394.328 28.9245V127.966C394.328 135.422 400.377 141.471 407.834 141.471H506.875C514.331 141.471 520.38 135.422 520.38 127.966V28.9245C520.38 21.4683 514.331 15.4189 506.875 15.4189ZM462.925 113.728C462.925 125.996 455.722 131.595 445.227 131.595C435.745 131.595 430.258 126.699 427.445 120.763L437.096 114.938C438.953 118.23 440.641 121.016 444.721 121.016C448.604 121.016 451.08 119.496 451.08 113.56V73.296H462.925V113.728V113.728ZM490.949 131.595C479.948 131.595 472.829 126.362 469.368 119.496L479.019 113.925C481.552 118.061 484.872 121.128 490.696 121.128C495.592 121.128 498.743 118.68 498.743 115.276C498.743 111.224 495.535 109.789 490.105 107.398L487.151 106.131C478.597 102.502 472.942 97.9156 472.942 88.2647C472.942 79.3735 479.723 72.6207 490.274 72.6207C497.815 72.6207 503.217 75.2375 507.1 82.1028L497.871 88.0115C495.845 84.3819 493.65 82.9469 490.246 82.9469C486.785 82.9469 484.59 85.1416 484.59 88.0115C484.59 91.5567 486.785 92.9917 491.878 95.2145L494.832 96.4806C504.905 100.786 510.56 105.203 510.56 115.107C510.56 125.743 502.176 131.595 490.949 131.595V131.595Z" fill="#044EE3"/>
</g>
<g clip-path="url(#clip5_66_32)">
<path d="M626.212 70.8595V50.4712H640.923C648.964 50.4712 653.667 54.248 653.667 60.6942C653.667 67.3223 648.675 70.8595 639.088 70.8595H626.212ZM626.212 101.95H641.898C651.683 101.95 656.857 97.9832 656.857 90.57C656.857 83.256 651.485 79.4296 641.27 79.4296H626.212V101.95V101.95Z" fill="#044EE3"/>
<path d="M606.6 11.9751C597.833 11.9751 589.424 15.4579 583.225 21.6574C577.025 27.8569 573.543 36.2653 573.543 45.0327V111.148C573.543 119.915 577.025 128.324 583.225 134.523C589.424 140.723 597.833 144.205 606.6 144.205H672.715C681.483 144.205 689.891 140.723 696.091 134.523C702.29 128.324 705.773 119.915 705.773 111.148V45.0327C705.773 36.2653 702.29 27.8569 696.091 21.6574C689.891 15.4579 681.483 11.9751 672.715 11.9751L606.6 11.9751V11.9751ZM615.36 111.148V41.2724H643.451C656.567 41.2724 664.467 47.9583 664.467 58.7102C664.467 66.016 659.096 72.5531 652.211 73.7184V74.5448C661.658 75.5117 667.947 82.239 667.947 91.3463C667.947 103.644 658.988 111.148 644.079 111.148H615.36V111.148Z" fill="#044EE3"/>
</g>
<defs>
<clipPath id="clip0_66_32">
<rect width="144.265" height="144.265" fill="white" transform="translate(197.164 5.98779)"/>
</clipPath>
<clipPath id="clip1_66_32">
<rect width="144.265" height="144.265" fill="white" transform="translate(0 5.98779)"/>
</clipPath>
<clipPath id="clip2_66_32">
<rect width="156.998" height="156.998" fill="white" transform="translate(1174)"/>
</clipPath>
<clipPath id="clip3_66_32">
<rect width="180.075" height="144.06" fill="white" transform="translate(758.718 6.41553)"/>
</clipPath>
<clipPath id="clip4_66_32">
<rect width="126.052" height="144.06" fill="white" transform="translate(394.328 6.41553)"/>
</clipPath>
<clipPath id="clip5_66_32">
<rect width="132.23" height="132.23" fill="white" transform="translate(573.529 11.9751)"/>
</clipPath>
</defs>
</svg>
